<svg width="24" height="24" viewBox="0 0 24 24" fill="none" xmlns="http://www.w3.org/2000/svg">
<path d="M2.90747 7.82L3.93547 17.9535C4.04101 18.9943 4.52915 19.9589 5.3053 20.6603C6.08145 21.3617 7.09034 21.75 8.13647 21.75H15.8635C16.9096 21.75 17.9185 21.3617 18.6946 20.6603C19.4708 19.9589 19.9589 18.9943 20.0645 17.9535L21.0925 7.8195L2.90747 7.82Z" stroke="black" stroke-width="1" stroke-linecap="round" stroke-linejoin="round"/>
<path d="M7.81653 7.82V6.412C7.81653 5.3026 8.25724 4.23864 9.0417 3.45418C9.82617 2.66971 10.8901 2.229 11.9995 2.229C13.1089 2.229 14.1729 2.66971 14.9574 3.45418C15.7418 4.23864 16.1825 5.3026 16.1825 6.412V7.8195M10.199 17.197C10.599 17.533 11.0305 17.687 12 17.687H12.4915C12.8759 17.6865 13.2443 17.5333 13.5157 17.2612C13.7872 16.9891 13.9394 16.6203 13.939 16.236C13.9394 15.8517 13.7872 15.4829 13.5157 15.2108C13.2443 14.9387 12.8759 14.7855 12.4915 14.785H11.5085C11.1242 14.7845 10.7558 14.6313 10.4843 14.3592C10.2129 14.0871 10.0606 13.7183 10.061 13.334C10.0608 12.9497 10.2131 12.5811 10.4845 12.3091C10.7559 12.0371 11.1243 11.884 11.5085 11.8835H12C12.97 11.8835 13.4015 12.037 13.801 12.373" stroke="#F7941C" stroke-width="1" stroke-linecap="round" stroke-linejoin="round"/>
</svg>
