<svg width="24" height="24" viewBox="0 0 24 24" fill="none" xmlns="http://www.w3.org/2000/svg">
<path d="M17.5271 14.672C17.5502 14.7567 17.5594 14.846 17.5542 14.935C17.549 15.024 17.5295 15.1109 17.4969 15.1907C17.4642 15.2705 17.419 15.3416 17.3639 15.4001C17.3087 15.4585 17.2447 15.5031 17.1754 15.5313L14.6755 16.5501C14.5357 16.607 14.3831 16.5937 14.2513 16.5131C14.1195 16.4324 14.0193 16.2911 13.9727 16.1202C13.9262 15.9492 13.9371 15.7626 14.003 15.6015C14.069 15.4403 14.1846 15.3178 14.3244 15.2609L16.8243 14.2421C16.8936 14.2138 16.9667 14.2026 17.0395 14.2089C17.1122 14.2153 17.1833 14.2391 17.2486 14.279C17.3138 14.319 17.372 14.3742 17.4198 14.4416C17.4676 14.5091 17.5041 14.5874 17.5271 14.672Z" fill="#F7941C"/>
<path fill-rule="evenodd" clip-rule="evenodd" d="M2.38024 10.7766L4.22242 11.5271V17.264C4.22242 17.4052 4.25843 17.543 4.32544 17.658C4.39245 17.773 4.48713 17.8597 4.5963 17.9059L11.8139 20.9604C11.928 21.0105 12.0524 21.0131 12.1678 20.9679L12.1756 20.9652L12.1839 20.9618L19.4037 17.9059C19.5129 17.8597 19.6075 17.773 19.6746 17.658C19.7416 17.543 19.7776 17.4052 19.7776 17.264V11.5271L21.6198 10.7766C21.7047 10.742 21.7816 10.6829 21.8439 10.6042C21.9061 10.5254 21.9519 10.4295 21.9772 10.3245C22.0026 10.2195 22.0068 10.1085 21.9896 10.0011C21.9723 9.89367 21.9341 9.79293 21.8781 9.70746L19.6559 6.31127C19.59 6.21094 19.5022 6.13557 19.4026 6.09391L12.1817 3.03734C12.064 2.98755 11.936 2.98755 11.8183 3.03734L4.59741 6.09391C4.49782 6.13553 4.40996 6.21092 4.34408 6.31127L2.12191 9.70746C2.06594 9.79293 2.02768 9.89367 2.01042 10.0011C1.99316 10.1085 1.99739 10.2195 2.02276 10.3245C2.04813 10.4295 2.09389 10.5254 2.15614 10.6042C2.21838 10.6829 2.29526 10.742 2.38024 10.7766ZM10.5106 13.5778L11.4445 11.9476V19.3669L5.3335 16.7804V11.9795L9.88005 13.8325C9.99363 13.8786 10.1164 13.8787 10.23 13.8327C10.3436 13.7867 10.442 13.6977 10.5106 13.5778ZM6.47625 6.7358L12 9.07373L17.5238 6.7358L12 4.39786L6.47625 6.7358ZM13.4894 13.5784L12.5555 11.9469V19.3669L18.6665 16.7804V11.9795L14.1199 13.8325C14.0064 13.8786 13.8836 13.8787 13.77 13.8327C13.6564 13.7867 13.558 13.697 13.4894 13.5771M4.96684 7.53458L3.48743 9.79576L6.54902 11.0435L9.83783 12.3837L11.1228 10.1401L11.0478 10.1082L4.96684 7.53458ZM20.5126 9.79576L19.0332 7.5339L12.8772 10.1401L14.1622 12.3837L20.5126 9.79576Z" fill="black"/>
</svg>
