<svg width="24" height="24" viewBox="0 0 24 24" fill="none" xmlns="http://www.w3.org/2000/svg">
<path d="M9 12C9 12.7956 9.31607 13.5587 9.87868 14.1213C10.4413 14.6839 11.2044 15 12 15C12.7956 15 13.5587 14.6839 14.1213 14.1213C14.6839 13.5587 15 12.7956 15 12" stroke="#F7941C" stroke-linecap="round"/>
<path d="M4.5 8.711C4.5 8.11 4.5 7.809 4.586 7.526C4.672 7.243 4.838 6.992 5.172 6.492L5.312 6.282C5.894 5.409 6.184 4.973 6.627 4.737C7.069 4.5 7.593 4.5 8.641 4.5H15.359C16.407 4.5 16.931 4.5 17.373 4.737C17.815 4.973 18.106 5.409 18.687 6.281L18.828 6.492C19.162 6.992 19.328 7.242 19.414 7.526C19.5 7.809 19.5 8.11 19.5 8.711V15.5C19.5 17.386 19.5 18.328 18.914 18.914C18.328 19.5 17.386 19.5 15.5 19.5H8.5C6.614 19.5 5.672 19.5 5.086 18.914C4.5 18.328 4.5 17.386 4.5 15.5V8.711Z" stroke="black"/>
<path d="M4.5 9.5H19.5" stroke="black" stroke-linecap="round"/>
</svg>
